<svg width="24.000000" height="24.000000" viewBox="0 0 24 24" fill="none" xmlns="http://www.w3.org/2000/svg" xmlns:xlink="http://www.w3.org/1999/xlink">
	<desc>
			Created with Pixso.
	</desc>
	<defs/>
	<rect id="Token/BNB" width="24.000000" height="24.000000" fill="#FFFFFF" fill-opacity="0"/>
	<path id="Ellipse" d="M12 24C18.62 24 24 18.62 24 12C24 5.37 18.62 0 12 0C5.37 0 0 5.37 0 12C0 18.62 5.37 24 12 24Z" fill="#F3BA2F" fill-opacity="1.000000" fill-rule="evenodd"/>
	<path id="Union" d="M12 7.3L8.67 10.63L6.73 8.69L12 3.42L17.26 8.69L15.33 10.63L12 7.3ZM13.96 11.99L13.96 11.99L12 10.03L10.03 11.99L10.03 11.99L10.03 12L12 13.96L13.96 12L13.96 11.99L13.96 11.99ZM5.36 10.06L3.42 12L5.36 13.93L7.3 11.99L5.36 10.06ZM18.63 10.06L16.69 12L18.63 13.93L20.57 12L18.63 10.06ZM8.67 13.36L12 16.69L15.33 13.36L17.26 15.3L17.26 15.3L12 20.57L6.73 15.3L8.67 13.36Z" fill="#FFFFFF" fill-opacity="1.000000" fill-rule="evenodd"/>
</svg>
