<svg width="24.000000" height="24.000244" viewBox="0 0 24 24.0002" fill="none" xmlns="http://www.w3.org/2000/svg" xmlns:xlink="http://www.w3.org/1999/xlink">
	<desc>
			Created with Pixso.
	</desc>
	<defs/>
	<rect id="Token/BTC" width="24.000000" height="24.000000" fill="#FFFFFF" fill-opacity="0"/>
	<path id="Vector" d="M23.64 14.9C22.03 21.33 15.52 25.24 9.09 23.64C2.66 22.03 -1.25 15.52 0.35 9.09C1.96 2.66 8.47 -1.25 14.9 0.35C21.33 1.96 25.24 8.47 23.64 14.9L23.64 14.9Z" fill="#F7931A" fill-opacity="1.000000" fill-rule="evenodd"/>
	<path id="Vector" d="M17.29 10.29C17.53 8.69 16.31 7.83 14.65 7.26L15.19 5.09L13.87 4.77L13.34 6.87C13 6.79 12.64 6.7 12.29 6.62L12.82 4.5L11.5 4.18L10.96 6.34C10.68 6.27 10.4 6.21 10.12 6.14L10.12 6.13L8.31 5.68L7.96 7.09C7.96 7.09 8.93 7.31 8.91 7.32C9.45 7.46 9.54 7.81 9.53 8.09L8.91 10.55C8.95 10.56 9 10.58 9.05 10.6C9.01 10.59 8.96 10.58 8.91 10.56L8.05 14.02C7.98 14.18 7.82 14.42 7.45 14.33C7.46 14.35 6.49 14.09 6.49 14.09L5.84 15.6L7.55 16.02C7.87 16.1 8.18 16.19 8.49 16.27L7.94 18.45L9.26 18.78L9.8 16.62C10.16 16.72 10.51 16.81 10.85 16.89L10.31 19.04L11.63 19.37L12.17 17.19C14.42 17.61 16.1 17.44 16.81 15.41C17.39 13.78 16.79 12.83 15.6 12.22C16.47 12.02 17.11 11.45 17.29 10.29L17.29 10.29M14.28 14.5C13.87 16.14 11.12 15.25 10.23 15.03L10.95 12.13C11.84 12.36 14.7 12.8 14.28 14.5L14.28 14.5M14.69 10.26C14.31 11.75 12.02 10.99 11.28 10.81L11.93 8.18C12.68 8.36 15.07 8.71 14.69 10.26L14.69 10.26Z" fill="#FFFFFF" fill-opacity="1.000000" fill-rule="evenodd"/>
</svg>
