<svg width="24.000000" height="24.000000" viewBox="0 0 24 24" fill="none" xmlns="http://www.w3.org/2000/svg" xmlns:xlink="http://www.w3.org/1999/xlink">
	<desc>
			Created with Pixso.
	</desc>
	<defs/>
	<rect id="Token/ETH" width="24.000000" height="24.000000" fill="#FFFFFF" fill-opacity="0"/>
	<path id="Vector" d="M20.45 20.54C19.33 21.66 18 22.54 16.54 23.13C15.07 23.73 13.5 24.02 11.92 23.99C10.35 24.02 8.79 23.73 7.34 23.14C5.88 22.54 4.56 21.66 3.46 20.54C2.34 19.44 1.45 18.12 0.85 16.66C0.25 15.2 -0.04 13.64 0 12.06C0 8.61 1.15 5.74 3.46 3.44C4.56 2.32 5.88 1.44 7.34 0.85C8.79 0.26 10.35 -0.03 11.92 0C13.5 -0.03 15.07 0.26 16.54 0.85C18 1.45 19.33 2.33 20.45 3.44C22.81 5.74 23.99 8.61 23.99 12.06C24.02 13.65 23.72 15.22 23.11 16.68C22.5 18.13 21.6 19.45 20.45 20.54Z" fill="#C8C8C8" fill-opacity="1.000000" fill-rule="evenodd"/>
	<path id="Vector" d="M12 3.77L7.2 11.95L12 9.7L12 3.77Z" fill="#8B8B8B" fill-opacity="1.000000" fill-rule="evenodd"/>
	<path id="Vector" d="M12 9.7L7.2 11.95L12 14.86L12 9.7Z" fill="#393939" fill-opacity="1.000000" fill-rule="evenodd"/>
	<path id="Vector" d="M12 3.77L12 9.7L16.79 11.95L12 3.77Z" fill="#343434" fill-opacity="1.000000" fill-rule="evenodd"/>
	<path id="Vector" d="M12 9.7L12 14.86L16.79 11.95L12 9.7Z" fill="#161616" fill-opacity="1.000000" fill-rule="evenodd"/>
	<path id="Vector" d="M7.2 12.88L12 19.83L12 15.79L7.2 12.88Z" fill="#8B8B8B" fill-opacity="1.000000" fill-rule="evenodd"/>
	<path id="Vector" d="M16.79 12.88L12 15.79L12 19.83L16.79 12.88Z" fill="#343434" fill-opacity="1.000000" fill-rule="evenodd"/>
</svg>
