<svg width="24.000000" height="24.000000" viewBox="0 0 24 24" fill="none" xmlns="http://www.w3.org/2000/svg" xmlns:xlink="http://www.w3.org/1999/xlink">
	<desc>
			Created with Pixso.
	</desc>
	<defs>
		<linearGradient x1="9.698881" y1="4.110409" x2="12.228210" y2="12.795800" id="paint_linear_11_1012_0" gradientUnits="userSpaceOnUse">
			<stop stop-color="#03B8FF"/>
			<stop offset="1.000000" stop-color="#FA52A0"/>
		</linearGradient>
		<linearGradient x1="11.781775" y1="3.503738" x2="14.311170" y2="12.189200" id="paint_linear_11_1013_0" gradientUnits="userSpaceOnUse">
			<stop stop-color="#03B8FF"/>
			<stop offset="1.000000" stop-color="#FA52A0"/>
		</linearGradient>
		<linearGradient x1="7.622406" y1="4.715063" x2="10.151799" y2="13.400528" id="paint_linear_11_1014_0" gradientUnits="userSpaceOnUse">
			<stop stop-color="#03B8FF"/>
			<stop offset="1.000000" stop-color="#FA52A0"/>
		</linearGradient>
	</defs>
	<rect width="24.000000" height="24.000000" fill="#FFFFFF" fill-opacity="0"/>
	<circle cx="12.000000" cy="12.000000" r="12.000000" fill="#FFFFFF" fill-opacity="1.000000"/>
	<path d="M7.2 5.34L19.95 14.05L16.79 18.71L4.04 9.94L7.2 5.34Z" fill="url(#paint_linear_11_1012_0)" fill-opacity="1.000000" fill-rule="evenodd"/>
	<path d="M19.95 14.05C18.85 15.63 15.15 15.01 11.65 12.54C8.09 10.14 6.17 6.92 7.19 5.34C8.29 3.77 12 4.38 15.49 6.85C19.06 9.18 20.98 12.48 19.95 14.05L19.95 14.05Z" fill="url(#paint_linear_11_1013_0)" fill-opacity="1.000000" fill-rule="evenodd"/>
	<path d="M16.79 18.65C15.7 20.22 12 19.61 8.5 17.14C5 14.67 3.01 11.52 4.11 9.87C5.21 8.29 8.91 8.91 12.41 11.38C15.9 13.85 17.82 17.07 16.79 18.65L16.79 18.65Z" fill="url(#paint_linear_11_1014_0)" fill-opacity="1.000000" fill-rule="evenodd"/>
	<path d="M19.95 14.05L16.79 18.71C15.7 20.29 12 19.61 8.5 17.21C7.81 16.73 7.19 16.25 6.58 15.7C7.06 15.63 7.67 15.36 8.29 14.67C9.39 13.5 9.94 13.23 10.42 13.3C10.9 13.3 11.45 13.78 12.34 14.94C13.23 16.11 14.46 16.45 15.22 15.84C15.29 15.77 15.36 15.77 15.42 15.7C16.04 15.22 16.25 15.01 17.41 12.82C17.69 12.27 18.65 11.38 19.95 11.79C20.29 12.68 20.29 13.44 19.95 14.05L19.95 14.05Z" fill="#0E0F23" fill-opacity="1.000000" fill-rule="evenodd"/>
	<path d="M19.47 13.78C18.51 15.15 15.15 14.46 11.93 12.2C8.64 9.94 6.72 7.06 7.68 5.69C8.64 4.32 12 5 15.22 7.26C18.44 9.53 20.36 12.41 19.47 13.78L19.47 13.78M16.45 11.72C15.97 12.41 14.33 12.06 12.68 10.97C11.1 9.87 10.14 8.43 10.62 7.74C11.1 7.06 12.75 7.4 14.4 8.5C15.97 9.6 16.93 11.04 16.45 11.72L16.45 11.72Z" fill="#FFFFFF" fill-opacity="1.000000" fill-rule="evenodd"/>
	<path d="M6.92 6.92C6.92 6.85 6.85 6.78 6.78 6.85C6.72 6.92 6.65 6.92 6.65 6.99C6.72 7.19 6.78 7.33 6.78 7.47C6.78 7.54 6.85 7.61 6.92 7.54C6.99 7.54 7.06 7.47 6.99 7.4C6.99 7.26 6.99 7.13 6.92 6.92L6.92 6.92Z" fill="#FFFFFF" fill-opacity="1.000000" fill-rule="evenodd"/>
	<path d="M7.26 8.02C7.26 7.95 7.2 7.88 7.13 7.95C7.06 8.02 7.06 8.02 7.06 8.09C7.81 9.8 9.39 11.65 11.45 13.02C11.52 13.09 11.58 13.02 11.65 13.02C11.72 12.96 11.65 12.89 11.65 12.82C9.53 11.45 8.02 9.66 7.26 8.02L7.26 8.02Z" fill="#FFFFFF" fill-opacity="1.000000" fill-rule="evenodd"/>
	<path d="M15.56 14.74C15.49 14.74 15.42 14.74 15.42 14.81C15.42 14.88 15.42 14.94 15.49 14.94C15.7 15.01 15.97 15.08 16.18 15.15C16.25 15.15 16.32 15.15 16.32 15.08C16.32 15.01 16.32 14.94 16.25 14.94C16.04 14.88 15.77 14.81 15.56 14.74L15.56 14.74Z" fill="#FFFFFF" fill-opacity="1.000000" fill-rule="evenodd"/>
	<path d="M16.79 15.01C16.73 15.01 16.66 15.08 16.66 15.15C16.66 15.22 16.73 15.29 16.79 15.29C17.34 15.36 17.96 15.42 18.44 15.36C18.51 15.36 18.58 15.29 18.58 15.22C18.58 15.15 18.51 15.08 18.44 15.08C17.89 15.15 17.34 15.08 16.79 15.01L16.79 15.01Z" fill="#FFFFFF" fill-opacity="1.000000" fill-rule="evenodd"/>
</svg>
